<svg xmlns="http://www.w3.org/2000/svg" width="545" height="457" viewBox="0 0 545 457" version="1.1"><path d="M 192.765 53.750 C 192.466 69.563, 192.314 100.050, 192.427 121.500 C 192.664 166.620, 191.954 163.191, 203.398 174.549 C 211.248 182.341, 219.487 187.063, 236.500 193.521 C 260.786 202.741, 264.670 204.360, 267.500 206.441 C 272.046 209.784, 273.454 210.004, 276.607 207.863 C 282.066 204.155, 288.826 201.057, 302.653 195.926 C 322.848 188.432, 335.093 181.874, 342.538 174.564 C 353.346 163.953, 352.698 167.776, 353.054 112.500 C 353.496 43.892, 353.237 25, 351.857 25 C 351.229 25, 347.741 28.071, 344.107 31.825 C 332.518 43.795, 322.504 49, 311.062 49 C 300.695 49, 293.466 45.236, 280.789 33.239 C 272.888 25.762, 273.080 25.737, 263.265 35.505 C 254.790 43.940, 246.390 48.032, 236.175 48.704 C 229.940 49.114, 227.468 48.814, 223 47.106 C 216.551 44.642, 206.484 37.300, 199.682 30.100 C 197.032 27.295, 194.514 25, 194.086 25 C 193.659 25, 193.064 37.938, 192.765 53.750 M 264.682 38.615 C 259.367 43.750, 254.724 47.182, 250.182 49.334 C 244.211 52.163, 242.537 52.500, 234.448 52.500 C 226.020 52.500, 224.879 52.244, 217.883 48.787 C 213.583 46.662, 207.551 42.491, 203.781 39.037 C 200.158 35.716, 196.925 33, 196.597 33 C 196.269 33, 196 61.498, 196 96.329 L 196 159.657 199.101 164.338 C 206.415 175.380, 219.888 183.964, 242.500 191.987 C 256.496 196.953, 265.837 201.035, 270.021 204.015 C 272.980 206.122, 273.019 206.123, 275.750 204.202 C 280.479 200.877, 284.981 198.872, 302.500 192.291 C 328.479 182.531, 338.818 176.008, 346.394 164.594 L 350 159.161 350 95.368 L 350 31.575 345.250 36.118 C 338.214 42.847, 332.862 46.709, 326.336 49.766 C 321.325 52.113, 319.220 52.500, 311.448 52.500 C 303.001 52.500, 301.888 52.249, 294.796 48.744 C 289.499 46.126, 285.055 42.868, 280.132 37.994 C 276.247 34.147, 272.941 31.014, 272.784 31.030 C 272.628 31.047, 268.982 34.460, 264.682 38.615 M 221.450 66.270 C 221.164 67.015, 221.058 90.851, 221.215 119.240 C 221.536 177.330, 220.884 172.541, 229.404 179.442 L 233.180 182.500 252.090 182.811 L 271 183.121 271 171.561 L 271 160 262.500 160 L 254 160 254 166.500 L 254 173 246.009 173 L 238.017 173 237.759 119.250 L 237.500 65.500 229.735 65.208 C 223.916 64.989, 221.839 65.255, 221.450 66.270 M 276.705 65.628 C 276.317 66.016, 276 86.024, 276 110.090 L 276 153.847 278.734 157.173 C 280.238 159.003, 281.701 160.725, 281.986 161 C 282.271 161.275, 286.488 166.113, 291.356 171.750 C 296.225 177.387, 300.557 182, 300.981 182 C 301.406 182, 307.214 175.612, 313.887 167.804 L 326.021 153.609 325.760 109.554 L 325.500 65.500 317.500 65.500 L 309.500 65.500 309.214 108.500 L 308.927 151.500 304.946 156 L 300.965 160.500 296.993 156.004 L 293.021 151.507 292.760 108.504 L 292.500 65.500 284.955 65.212 C 280.805 65.053, 277.093 65.241, 276.705 65.628 M 495.406 164.104 C 492.707 167.087, 486.318 170.654, 479.420 173.030 C 473.152 175.189, 455.531 178.510, 445.500 179.424 C 401.995 183.386, 384.372 185.795, 371.500 189.540 C 354.274 194.550, 344.715 200.212, 330.930 213.568 C 319.671 224.477, 318.808 224.773, 303.189 223.102 C 280.844 220.710, 261.615 226.016, 253.102 236.922 C 245.078 247.202, 242.921 254.440, 247.537 255.599 C 251.786 256.665, 255.434 255.333, 263.727 249.686 C 272.366 243.803, 279.766 241.358, 285.611 242.455 C 289.781 243.237, 292.012 245.361, 317.888 273.180 C 327.956 284.004, 336.865 293.118, 337.687 293.433 C 340.635 294.565, 341.191 292.813, 340.845 283.483 C 340.655 278.378, 340.725 274.057, 341 273.881 C 341.275 273.704, 343.705 275.077, 346.401 276.932 C 349.096 278.786, 353.974 281.135, 357.240 282.152 C 363.852 284.210, 376 284.684, 376 282.884 C 376 282.270, 373.545 279.115, 370.543 275.874 C 365.167 270.066, 363.008 265.028, 364.372 261.473 C 364.893 260.116, 365.298 260.102, 367.732 261.351 C 375.635 265.409, 387.591 268.286, 397 268.392 C 405.473 268.488, 407.170 268.190, 412.697 265.637 C 418.261 263.067, 422.996 259.492, 421.911 258.681 C 421.685 258.512, 417.851 257.866, 413.391 257.245 C 403.303 255.841, 393.945 252.765, 387.750 248.818 C 379.747 243.719, 381.733 242.882, 395.500 245.552 C 428.549 251.962, 444.400 247.585, 457.616 228.397 C 460.583 224.088, 461.122 222.693, 460.068 222.042 C 457.925 220.718, 421.226 219.659, 401.500 220.352 C 380.789 221.080, 365.581 223.258, 350.750 227.620 C 347.795 228.489, 348.783 225.656, 352.257 223.302 C 363.989 215.349, 374.003 213.517, 416.746 211.506 C 449.802 209.950, 460.888 208.592, 470.074 204.971 C 485.086 199.054, 495.749 186.921, 498.875 172.201 C 500.979 162.292, 499.715 159.342, 495.406 164.104 M 270.762 218.707 C 272.006 218.946, 273.806 218.937, 274.762 218.687 C 275.718 218.437, 274.700 218.241, 272.500 218.252 C 270.300 218.263, 269.518 218.468, 270.762 218.707 M 225.315 283.007 C 218.862 285.607, 220.265 295, 227.106 295 C 233.468 295, 236.724 287.022, 231.777 283.557 C 229.289 281.814, 228.454 281.743, 225.315 283.007 M 235.747 291.984 C 228.413 297.753, 234.151 306.935, 243.134 303.804 C 248.061 302.086, 251.666 294.066, 248.800 291.200 C 246.831 289.231, 238.621 289.724, 235.747 291.984 M 252.973 297.719 C 244.014 303.949, 244.146 312, 253.206 312 C 256.424 312, 257.706 311.348, 260.574 308.250 C 265.244 303.206, 265.957 300.193, 263.040 297.831 C 260.201 295.533, 256.181 295.488, 252.973 297.719 M 263.703 307.792 C 258.297 313.328, 259.111 317, 265.745 317 C 272.027 317, 276.392 309.535, 272.429 305.571 C 269.971 303.114, 267.709 303.690, 263.703 307.792 M 376.374 347.500 C 376.376 353.550, 376.541 355.896, 376.740 352.713 C 376.939 349.531, 376.937 344.581, 376.736 341.713 C 376.535 338.846, 376.372 341.450, 376.374 347.500 M 376.300 403 C 376.300 406.025, 376.487 407.262, 376.716 405.750 C 376.945 404.238, 376.945 401.762, 376.716 400.250 C 376.487 398.738, 376.300 399.975, 376.300 403 M 287.252 407.500 C 287.263 409.700, 287.468 410.482, 287.707 409.238 C 287.946 407.994, 287.937 406.194, 287.687 405.238 C 287.437 404.282, 287.241 405.300, 287.252 407.500 M 287.343 426.500 C 287.346 430.900, 287.522 432.576, 287.733 430.224 C 287.945 427.872, 287.942 424.272, 287.727 422.224 C 287.512 420.176, 287.339 422.100, 287.343 426.500" stroke="none" fill="#d9b18b" fill-rule="evenodd"/><path d="M 264.682 38.615 C 259.367 43.750, 254.724 47.182, 250.182 49.334 C 244.211 52.163, 242.537 52.500, 234.448 52.500 C 226.020 52.500, 224.879 52.244, 217.883 48.787 C 213.583 46.662, 207.551 42.491, 203.781 39.037 C 200.158 35.716, 196.925 33, 196.597 33 C 196.269 33, 196 61.498, 196 96.329 L 196 159.657 199.101 164.338 C 206.415 175.380, 219.888 183.964, 242.500 191.987 C 256.496 196.953, 265.837 201.035, 270.021 204.015 C 272.980 206.122, 273.019 206.123, 275.750 204.202 C 280.479 200.877, 284.981 198.872, 302.500 192.291 C 328.479 182.531, 338.818 176.008, 346.394 164.594 L 350 159.161 350 95.368 L 350 31.575 345.250 36.118 C 338.214 42.847, 332.862 46.709, 326.336 49.766 C 321.325 52.113, 319.220 52.500, 311.448 52.500 C 303.001 52.500, 301.888 52.249, 294.796 48.744 C 289.499 46.126, 285.055 42.868, 280.132 37.994 C 276.247 34.147, 272.941 31.014, 272.784 31.030 C 272.628 31.047, 268.982 34.460, 264.682 38.615 M 221.450 66.270 C 221.164 67.015, 221.058 90.851, 221.215 119.240 C 221.536 177.330, 220.884 172.541, 229.404 179.442 L 233.180 182.500 252.090 182.811 L 271 183.121 271 171.561 L 271 160 262.500 160 L 254 160 254 166.500 L 254 173 246.009 173 L 238.017 173 237.759 119.250 L 237.500 65.500 229.735 65.208 C 223.916 64.989, 221.839 65.255, 221.450 66.270 M 276.705 65.628 C 276.317 66.016, 276 86.024, 276 110.090 L 276 153.847 278.734 157.173 C 280.238 159.003, 281.701 160.725, 281.986 161 C 282.271 161.275, 286.488 166.113, 291.356 171.750 C 296.225 177.387, 300.557 182, 300.981 182 C 301.406 182, 307.214 175.612, 313.887 167.804 L 326.021 153.609 325.760 109.554 L 325.500 65.500 317.500 65.500 L 309.500 65.500 309.214 108.500 L 308.927 151.500 304.946 156 L 300.965 160.500 296.993 156.004 L 293.021 151.507 292.760 108.504 L 292.500 65.500 284.955 65.212 C 280.805 65.053, 277.093 65.241, 276.705 65.628 M 46 164.106 C 46 167.811, 49.066 178.195, 51.704 183.429 C 55.377 190.712, 59.194 195.201, 65.279 199.392 C 77.205 207.606, 92.030 210.202, 137 211.952 C 166.195 213.088, 172.619 213.951, 182.499 218.064 C 189.916 221.152, 199.063 227.832, 194 226.463 C 192.625 226.091, 188.438 224.949, 184.696 223.925 C 175.079 221.293, 160.538 220, 140.554 220 C 117.161 220, 87.395 221.138, 85.853 222.091 C 84.852 222.709, 84.892 223.436, 86.046 225.614 C 88.521 230.286, 96.843 238.730, 103.073 242.890 C 112.611 249.259, 116.495 249.704, 139.437 247.058 C 150.158 245.821, 159.462 244.987, 160.114 245.205 C 163.426 246.309, 132.690 255.975, 125.809 255.993 C 121.774 256.004, 121.486 257.717, 124.972 260.974 C 133.432 268.877, 146.568 269.829, 167.291 264.042 C 173.777 262.231, 179.370 261.036, 179.721 261.387 C 180.481 262.148, 178.478 266.194, 172.990 274.979 C 167.570 283.654, 167.873 284.573, 176.032 284.221 C 184.610 283.851, 195.281 280.432, 200.652 276.332 L 205 273.013 205 283.507 C 205 296.644, 205.609 296.812, 215.795 286.493 C 219.871 282.365, 224.260 278.722, 225.549 278.398 C 229.086 277.511, 234.385 279.677, 236.857 283.020 C 238.753 285.584, 239.718 286.004, 243.780 286.028 C 247.440 286.049, 249.382 286.723, 252.428 289.028 C 254.658 290.715, 257.592 292, 259.215 292 C 261.298 292, 263.287 293.247, 266.537 296.592 C 268.992 299.117, 271 300.894, 271 300.541 C 271 300.188, 272.427 301.232, 274.171 302.862 C 276.446 304.988, 277.512 307.052, 277.941 310.163 C 278.517 314.336, 278.666 314.494, 281.879 314.341 C 286.747 314.108, 287.795 312.616, 285.645 308.976 L 283.871 305.973 287.575 308.486 C 291.961 311.463, 295.073 311.681, 297.345 309.171 C 300.377 305.821, 299.328 303.306, 291.843 295.983 C 287.907 292.132, 284.995 288.672, 285.371 288.295 C 285.748 287.918, 289.081 290.572, 292.778 294.193 C 300.105 301.368, 302.607 303, 306.279 303 C 310.171 303, 313.623 297.824, 312.218 294.096 C 311.823 293.048, 307.533 287.827, 302.684 282.494 C 297.835 277.162, 294.133 272.534, 294.457 272.210 C 294.780 271.886, 300.097 276.890, 306.273 283.330 C 318.123 295.689, 319.796 296.605, 324.119 293.105 C 326.076 291.520, 326.299 290.798, 325.480 288.700 C 324.941 287.321, 317.930 279.286, 309.901 270.846 C 301.871 262.406, 293.464 253.475, 291.219 251 C 287.296 246.676, 286.925 246.505, 281.737 246.624 C 275.631 246.765, 273.393 247.733, 267 253 C 260.444 258.401, 258.210 259.318, 251.370 259.414 C 239.935 259.574, 237.967 253.401, 245.499 241.002 C 252.221 229.936, 257.900 225.762, 270 222.996 C 275.767 221.677, 278.311 220.313, 277.488 218.981 C 277.219 218.545, 276.211 218.349, 275.249 218.547 C 274.287 218.744, 271.196 219.112, 268.380 219.363 C 265.564 219.615, 262.414 220.278, 261.380 220.836 C 255.527 223.998, 245.457 226.999, 240.739 226.987 C 236.524 226.976, 234.132 226.210, 228.500 223.068 C 224.650 220.920, 219.025 217.026, 216 214.415 C 207.395 206.986, 194.776 199.175, 185.232 195.368 C 163.865 186.845, 155.050 185.181, 106.500 180.503 C 72.511 177.229, 58.076 173.159, 50.076 164.595 C 47.137 161.450, 46 161.313, 46 164.106 M 148.006 378.250 C 148.009 405.627, 148.414 425.951, 148.999 428.057 C 149.543 430.013, 151.228 432.802, 152.744 434.254 C 157.700 439.002, 161.742 440, 176.002 440 L 189.068 440 188.784 429.250 L 188.500 418.500 182 418.500 L 175.500 418.500 175 424 L 174.500 429.500 168.500 429.500 L 162.500 429.500 162.240 380.750 L 161.981 332 154.990 332 L 148 332 148.006 378.250 M 206.024 334.194 C 204.112 335.488, 201.524 338.066, 200.274 339.922 L 198 343.296 198 384.583 C 198 411.263, 198.375 426.866, 199.061 428.685 C 201.033 433.914, 205.849 437.827, 211.848 439.072 C 221.543 441.085, 230.893 438.361, 235.500 432.182 C 237.414 429.615, 237.512 427.703, 237.782 387.631 C 238.057 346.735, 238.014 345.661, 235.946 341.388 C 232.554 334.381, 229.105 332.559, 218.500 332.170 C 210.395 331.872, 209.154 332.074, 206.024 334.194 M 246.634 333.512 C 245.519 336.418, 245.901 435.946, 247.035 438.066 C 247.878 439.640, 249.160 440, 253.928 440 C 258.347 440, 259.935 439.611, 260.393 438.418 C 260.727 437.548, 261 426.523, 261 413.918 L 261 391 267 391 L 273 391 273 411.435 C 273 433.147, 273.425 435.701, 277.814 440.339 C 280.460 443.136, 285.841 446.492, 286.548 445.786 C 286.747 445.587, 286.986 434.115, 287.080 420.292 L 287.250 395.161 284.121 390.523 C 280.745 385.523, 280.803 384.925, 285.245 378.893 C 286.959 376.565, 287.153 374.599, 287.055 360.548 C 286.931 342.856, 285.896 339.201, 279.773 334.834 C 276.764 332.689, 275.319 332.474, 261.884 332.180 C 249.032 331.899, 247.191 332.059, 246.634 333.512 M 296.607 333.582 C 295.649 336.078, 295.931 437.342, 296.900 438.872 C 297.586 439.956, 300.468 440.154, 310.634 439.818 C 325.673 439.320, 329.713 437.901, 333.839 431.667 L 336.500 427.647 336.500 386.073 C 336.500 345.921, 336.429 344.365, 334.423 340.540 C 333.067 337.956, 330.840 335.783, 328.015 334.290 C 324.133 332.237, 322.316 332, 310.450 332 C 299.303 332, 297.118 332.250, 296.607 333.582 M 362.607 333.582 C 362.273 334.452, 362.020 352.114, 362.045 372.832 C 362.078 400.057, 362.424 411.205, 363.295 413.045 C 364.854 416.336, 374.846 430.361, 379.258 435.448 C 383.275 440.081, 381.582 441.346, 394.473 424.078 L 403 412.656 403 372.328 L 403 332 396 332 L 389 332 388.962 371.250 L 388.925 410.500 385.712 414.250 L 382.500 418 379.651 414.429 L 376.801 410.858 376.495 372.179 C 376.327 350.905, 376.147 333.163, 376.095 332.750 C 376.043 332.337, 373.123 332, 369.607 332 C 364.700 332, 363.073 332.368, 362.607 333.582 M 211.859 342.200 C 211.175 343.655, 211.394 426.868, 212.086 428.160 C 212.784 429.465, 214.184 429.799, 218.245 429.630 L 223.500 429.412 223.500 385.956 L 223.500 342.500 217.750 342.200 C 214.588 342.035, 211.937 342.035, 211.859 342.200 M 261.445 343.284 C 261.174 343.990, 261.075 352.652, 261.226 362.534 L 261.500 380.500 267.250 380.800 L 273 381.100 273.168 374.300 C 273.260 370.560, 273.466 362.775, 273.625 357 C 274.041 341.870, 274.094 342, 267.450 342 C 263.885 342, 261.763 342.454, 261.445 343.284 M 310.477 343.200 C 310.202 343.915, 310.095 363.625, 310.239 387 L 310.500 429.500 316.500 429.500 L 322.500 429.500 322.500 386 L 322.500 342.500 316.738 342.200 C 312.705 341.990, 310.826 342.290, 310.477 343.200" stroke="none" fill="#923b2b" fill-rule="evenodd"/></svg>